<?xml version="1.0" standalone="no"?>
<!DOCTYPE svg PUBLIC "-//W3C//DTD SVG 20010904//EN"
 "http://www.w3.org/TR/2001/REC-SVG-20010904/DTD/svg10.dtd">
<svg version="1.0" xmlns="http://www.w3.org/2000/svg"
 width="400.000000pt" height="400.000000pt" viewBox="0 0 400.000000 400.000000"
 preserveAspectRatio="xMidYMid meet">
<metadata>
Created by potrace 1.14, written by Peter Selinger 2001-2017
</metadata>
<g transform="translate(0.000000,400.000000) scale(0.100000,-0.100000)"
fill="#000000" stroke="none">
<path d="M1895 2864 c-44 -7 -89 -15 -100 -18 -46 -11 -156 -54 -158 -60 -1
-4 35 -23 81 -41 79 -31 85 -32 140 -20 67 13 71 15 75 16 8 6 257 4 257 -1 0
-4 13 -7 29 -8 59 -1 271 -78 286 -103 4 -5 10 -7 14 -5 4 3 17 -2 27 -12 10
-9 32 -24 48 -32 40 -20 194 -174 231 -230 17 -25 33 -46 38 -48 4 -2 7 -10 7
-18 0 -29 11 -19 66 58 l26 37 -20 35 c-34 57 -181 216 -200 216 -6 0 -12 3
-14 8 -3 8 -84 72 -91 72 -3 0 -31 16 -62 35 -32 19 -62 32 -66 29 -5 -3 -9
-1 -9 4 0 7 -109 51 -141 56 -8 1 -20 5 -26 9 -7 5 -17 6 -22 2 -5 -3 -12 -1
-16 4 -3 5 -13 10 -23 9 -9 0 -28 3 -42 7 -49 12 -256 12 -335 -1z"/>
<path d="M1350 2779 c-79 -8 -126 -34 -156 -84 -29 -49 -40 -119 -25 -155 l10
-25 0 26 c1 42 49 127 82 143 36 18 109 15 174 -8 46 -16 184 -84 195 -96 9
-10 45 -31 63 -36 9 -4 17 -10 17 -13 0 -4 23 -23 52 -41 29 -19 61 -42 73
-52 46 -41 55 -48 55 -42 0 6 219 -173 294 -241 6 -6 56 -52 111 -101 122
-111 245 -233 245 -244 0 -16 -352 -349 -422 -398 -10 -8 -29 -23 -42 -35 -12
-12 -31 -29 -42 -37 -73 -56 -121 -95 -131 -109 -7 -8 -13 -11 -13 -7 0 4 -6
1 -13 -6 -8 -7 -26 -22 -41 -33 -16 -11 -34 -26 -41 -32 -8 -7 -18 -13 -23
-13 -5 0 -30 -16 -56 -35 -25 -20 -46 -32 -46 -28 0 4 -4 3 -8 -3 -11 -17
-142 -89 -217 -119 -121 -48 -196 -32 -235 52 -12 26 -23 58 -24 70 0 13 -4
23 -7 23 -12 0 -16 -24 -13 -84 3 -48 9 -66 32 -95 47 -58 92 -76 187 -75 80
1 130 8 190 28 83 28 206 85 217 101 5 7 8 7 8 0 0 -6 3 -5 8 1 4 6 25 21 47
32 57 28 256 164 340 231 106 84 117 93 153 129 19 17 36 32 38 32 12 0 254
237 254 250 0 5 9 12 21 15 17 6 31 -5 72 -51 29 -31 59 -67 67 -78 8 -12 27
-33 43 -48 15 -16 24 -28 20 -28 -4 0 -3 -4 3 -8 17 -11 95 -122 87 -122 -4 0
-3 -4 3 -8 17 -11 64 -98 57 -106 -4 -3 -2 -6 4 -6 6 0 14 -17 18 -37 5 -21 9
-43 11 -49 1 -6 -5 -25 -13 -42 -14 -28 -45 -47 -98 -59 -11 -3 -27 -6 -35 -8
-8 -2 -24 -4 -35 -4 -13 -1 -16 -4 -8 -12 13 -13 134 -15 154 -3 8 5 20 9 28
11 24 3 69 57 79 95 16 60 4 149 -35 238 -40 92 -49 110 -56 110 -5 0 -5 5 -2
10 3 6 1 10 -6 10 -7 0 -9 3 -6 6 3 4 -2 18 -13 32 -11 13 -17 28 -14 33 3 5
1 9 -3 9 -5 0 -17 15 -27 33 -11 17 -28 42 -39 55 -11 12 -17 22 -13 22 4 0 0
7 -8 16 -9 9 -29 32 -44 52 -15 21 -30 39 -33 42 -3 3 -10 14 -16 24 -9 16 -4
28 25 68 20 26 40 48 44 48 4 0 8 5 8 10 0 6 18 35 40 65 22 30 40 59 40 65 0
6 7 13 15 16 8 4 15 11 15 16 0 5 16 36 35 69 19 32 32 59 28 59 -3 0 2 9 12
20 10 11 15 20 11 20 -3 0 0 14 9 30 9 17 13 30 9 30 -4 0 -2 6 4 13 12 14 20
49 29 124 4 41 1 61 -17 100 -22 45 -40 65 -56 63 -4 -1 -10 3 -13 9 -12 19
-122 24 -171 8 l-45 -15 45 -2 c123 -5 186 -53 173 -134 -5 -34 -56 -145 -87
-191 -41 -60 -136 -181 -176 -225 -23 -25 -53 -60 -67 -77 -14 -18 -29 -33
-34 -33 -5 0 -58 48 -118 108 -180 179 -382 352 -411 352 -6 0 -9 3 -6 8 5 8
-236 172 -253 172 -6 0 -11 4 -11 8 0 4 -12 13 -27 19 -16 7 -35 17 -43 22
-28 19 -185 90 -233 105 -85 28 -170 41 -227 35z"/>
<path d="M1364 2618 c-84 -72 -142 -137 -191 -213 -18 -27 -36 -54 -40 -60
-14 -17 -92 -193 -98 -220 -2 -5 -7 -28 -13 -50 -6 -22 -13 -56 -16 -75 -3
-19 -8 -46 -11 -60 -6 -29 -6 -221 0 -265 2 -16 7 -46 10 -65 4 -19 7 -44 8
-55 1 -11 5 -22 9 -25 4 -3 9 -17 11 -30 8 -47 95 -240 109 -240 4 0 8 -9 8
-20 0 -11 5 -20 10 -20 6 0 10 -7 10 -15 0 -8 5 -15 10 -15 6 0 10 -6 10 -12
0 -7 12 -24 25 -37 14 -12 22 -27 19 -32 -3 -5 -1 -9 4 -9 6 0 36 -26 69 -58
32 -32 66 -61 75 -65 11 -4 43 7 80 25 l61 32 -33 26 c-40 31 -152 140 -143
140 3 0 -4 8 -15 19 -12 10 -22 21 -22 25 0 6 -23 36 -48 62 -7 7 -13 16 -12
19 0 3 -16 37 -36 77 -20 39 -38 83 -40 96 -3 14 -8 30 -12 36 -3 6 -7 16 -9
21 -1 6 -8 36 -16 68 -21 82 -16 331 8 412 9 33 17 66 18 73 0 6 4 12 9 12 4
0 8 7 8 15 0 28 72 159 127 232 55 74 187 203 206 203 6 0 1 9 -11 20 -12 11
-26 20 -32 20 -5 0 -10 5 -10 10 0 6 -8 10 -18 10 -10 0 -23 5 -29 11 -7 7
-22 1 -49 -23z"/>
<path d="M2110 2545 c0 -8 27 -35 35 -35 3 0 18 -11 33 -25 15 -14 30 -25 34
-25 3 0 17 -9 30 -20 12 -11 64 -52 113 -91 50 -39 143 -123 208 -187 l117
-117 29 30 28 30 -20 40 c-11 22 -31 58 -46 80 -34 52 -180 197 -192 189 -5
-3 -9 -1 -9 4 0 5 -17 17 -37 28 -21 10 -44 23 -51 28 -19 14 -112 46 -112 39
0 -3 -6 -1 -12 5 -7 5 -35 13 -63 16 -27 4 -58 9 -67 12 -10 3 -18 2 -18 -1z"/>
<path d="M1645 2419 c-161 -102 -288 -302 -321 -504 -17 -104 0 -275 36 -360
16 -38 23 -60 22 -67 -1 -3 5 -12 13 -18 8 -7 15 -16 15 -21 0 -14 51 -91 76
-116 12 -12 24 -26 25 -30 9 -19 128 -113 161 -127 35 -15 37 -15 66 12 17 15
36 28 44 30 21 6 27 24 13 39 -8 7 -16 13 -20 13 -32 0 -225 177 -225 206 0 8
-3 14 -8 14 -8 0 -38 61 -34 73 1 4 -2 7 -6 7 -8 0 -21 36 -39 104 -13 48 -12
224 2 275 41 158 136 286 279 379 l68 44 -33 29 c-19 16 -40 29 -46 29 -7 0
-13 5 -13 10 0 18 -25 11 -75 -21z"/>
<path d="M1950 2166 c-76 -25 -149 -73 -181 -119 -13 -17 -27 -35 -31 -38 -5
-3 -19 -36 -32 -74 -40 -113 -19 -273 45 -346 12 -13 26 -31 33 -39 24 -34 94
-79 153 -100 78 -28 92 -23 188 64 l70 64 -50 -9 c-65 -13 -155 -5 -197 17
-50 26 -105 90 -122 142 -18 57 -14 137 10 184 16 32 94 117 94 102 0 -4 8 0
18 8 9 9 32 19 50 23 52 11 167 5 191 -10 18 -10 13 0 -12 26 -35 37 -137 121
-137 114 0 -4 -6 -3 -12 3 -9 7 -33 3 -78 -12z"/>
<path d="M3069 2113 c-9 -10 -31 -47 -50 -83 -30 -57 -34 -71 -28 -110 8 -53
5 -253 -5 -268 -3 -6 -2 -13 3 -17 6 -3 27 -37 47 -75 34 -66 54 -81 54 -41 0
9 5 22 12 29 7 7 9 12 6 12 -3 0 0 28 7 62 14 63 14 317 1 370 -3 14 -12 52
-19 83 -12 52 -14 55 -28 38z"/>
<path d="M2660 1562 c0 -15 -256 -269 -279 -277 -12 -4 -31 -14 -40 -23 -36
-35 -71 -62 -80 -62 -5 0 -12 -7 -15 -16 -3 -8 -10 -13 -14 -10 -5 3 -15 -4
-22 -15 -8 -10 -18 -19 -23 -19 -15 0 -87 -61 -82 -69 5 -9 79 1 168 24 15 4
27 11 27 17 0 5 4 7 9 4 11 -7 129 50 159 77 12 11 22 16 22 11 0 -5 4 -4 8 2
4 6 28 30 55 52 26 23 47 44 47 47 0 3 14 18 30 34 17 15 30 33 30 40 0 6 4
11 9 11 5 0 13 9 16 20 3 11 13 27 21 35 8 8 16 24 17 35 1 11 5 20 9 20 12 0
-5 34 -27 52 -21 18 -45 23 -45 10z"/>
<path d="M2840 1284 c-70 -111 -223 -249 -343 -311 -42 -21 -198 -82 -212 -83
-3 0 -6 0 -7 -1 -36 -12 -322 -24 -345 -14 -10 4 -34 9 -55 11 -20 2 -47 8
-60 13 -16 6 -34 5 -56 -5 -18 -7 -32 -10 -32 -7 0 3 -6 1 -12 -4 -7 -5 -35
-18 -61 -27 -44 -17 -47 -19 -30 -31 21 -14 128 -51 178 -60 85 -16 131 -23
137 -19 4 2 9 1 11 -3 9 -15 247 -5 307 12 8 2 30 7 49 10 18 3 49 12 67 20
19 8 34 12 34 11 0 -6 142 58 175 78 66 41 140 92 168 116 48 40 108 100 100
100 -4 0 0 6 9 13 8 6 34 36 56 65 41 52 41 54 28 86 -14 33 -54 86 -65 86 -3
0 -22 -25 -41 -56z"/>
</g>
</svg>
